<?xml version="1.0" encoding="utf-8"?>
<!-- Generator: Adobe Illustrator 19.1.1, SVG Export Plug-In . SVG Version: 6.00 Build 0)  -->
<svg version="1.1" id="Layer_1" xmlns="http://www.w3.org/2000/svg" xmlns:xlink="http://www.w3.org/1999/xlink" x="0px" y="0px"
	 viewBox="0 0 187 164" style="enable-background:new 0 0 187 164;" xml:space="preserve">
<style type="text/css">
	.st0{fill:#515254;}
	.st1{fill:#231F20;}
	.st2{fill:#00A69C;}
	.st3{fill:#6DBAB4;}
	.st4{opacity:0.2;}
	.st5{opacity:0.3;}
	.st6{fill:#FFFFFF;}
	.st7{fill:#666666;}
	.st8{fill:#58595B;}
</style>
<g>
	<path d="M126.3,137.3c0,4.5-3.7,8.1-8.2,8.1H72c-4.5,0-8.2-3.6-8.2-8.1V26.9c0-4.5,3.7-8.1,8.2-8.1h46.1c4.5,0,8.2,3.6,8.2,8.1
		V137.3z"/>
	<path class="st0" d="M125.6,136.5c0,4.4-3.6,8-8,8H72.4c-4.4,0-8-3.6-8-8V27.7c0-4.4,3.6-8,8-8h45.2c4.4,0,8,3.6,8,8V136.5z"/>
	<path class="st1" d="M100.4,25.1c0,0.4-0.3,0.7-0.7,0.7H87.9c-0.4,0-0.7-0.3-0.7-0.7l0,0c0-0.4,0.3-0.7,0.7-0.7h11.7
		C100,24.3,100.4,24.7,100.4,25.1L100.4,25.1z"/>
	<path class="st1" d="M117.5,24.3c0-0.4,0.3-0.7,0.7-0.7l0,0c0.4,0,0.7,0.3,0.7,0.7l0,0c0,0.4-0.3,0.7-0.7,0.7l0,0
		C117.8,25.1,117.5,24.7,117.5,24.3L117.5,24.3z"/>
	<path class="st2" d="M124.3,133.7c0,0.8-0.6,1.4-1.4,1.4H67.4c-0.8,0-1.4-0.6-1.4-1.4V31c0-0.8,0.6-1.4,1.4-1.4h55.5
		c0.8,0,1.4,0.6,1.4,1.4V133.7z"/>
	<g>
		<path class="st3" d="M81.5,93.4c0,1-0.8,1.9-1.9,1.9h-4.9c-1,0-1.9-0.8-1.9-1.9v-4.9c0-1,0.8-1.9,1.9-1.9h4.9c1,0,1.9,0.8,1.9,1.9
			V93.4z"/>
		<path class="st3" d="M93.8,93.4c0,1-0.8,1.9-1.9,1.9H87c-1,0-1.9-0.8-1.9-1.9v-4.9c0-1,0.8-1.9,1.9-1.9h4.9c1,0,1.9,0.8,1.9,1.9
			V93.4z"/>
		<path class="st3" d="M105.2,93.4c0,1-0.8,1.9-1.9,1.9h-4.9c-1,0-1.9-0.8-1.9-1.9v-4.9c0-1,0.8-1.9,1.9-1.9h4.9
			c1,0,1.9,0.8,1.9,1.9V93.4z"/>
		<path class="st3" d="M117.5,93.4c0,1-0.8,1.9-1.9,1.9h-4.9c-1,0-1.9-0.8-1.9-1.9v-4.9c0-1,0.8-1.9,1.9-1.9h4.9
			c1,0,1.9,0.8,1.9,1.9V93.4z"/>
		<path class="st3" d="M81.5,78.3c0,1-0.8,1.9-1.9,1.9h-4.9c-1,0-1.9-0.8-1.9-1.9v-4.9c0-1,0.8-1.9,1.9-1.9h4.9c1,0,1.9,0.8,1.9,1.9
			V78.3z"/>
		<path class="st3" d="M93.8,78.3c0,1-0.8,1.9-1.9,1.9H87c-1,0-1.9-0.8-1.9-1.9v-4.9c0-1,0.8-1.9,1.9-1.9h4.9c1,0,1.9,0.8,1.9,1.9
			V78.3z"/>
		<path class="st3" d="M105.2,78.3c0,1-0.8,1.9-1.9,1.9h-4.9c-1,0-1.9-0.8-1.9-1.9v-4.9c0-1,0.8-1.9,1.9-1.9h4.9
			c1,0,1.9,0.8,1.9,1.9V78.3z"/>
		<path class="st3" d="M117.5,78.3c0,1-0.8,1.9-1.9,1.9h-4.9c-1,0-1.9-0.8-1.9-1.9v-4.9c0-1,0.8-1.9,1.9-1.9h4.9
			c1,0,1.9,0.8,1.9,1.9V78.3z"/>
	</g>
	<g>
		<path class="st3" d="M81.5,63.2c0,1-0.8,1.9-1.9,1.9h-4.9c-1,0-1.9-0.8-1.9-1.9v-4.9c0-1,0.8-1.9,1.9-1.9h4.9c1,0,1.9,0.8,1.9,1.9
			V63.2z"/>
		<path class="st3" d="M93.8,63.2c0,1-0.8,1.9-1.9,1.9H87c-1,0-1.9-0.8-1.9-1.9v-4.9c0-1,0.8-1.9,1.9-1.9h4.9c1,0,1.9,0.8,1.9,1.9
			V63.2z"/>
		<path class="st3" d="M105.2,63.2c0,1-0.8,1.9-1.9,1.9h-4.9c-1,0-1.9-0.8-1.9-1.9v-4.9c0-1,0.8-1.9,1.9-1.9h4.9
			c1,0,1.9,0.8,1.9,1.9V63.2z"/>
		<path class="st3" d="M117.5,63.2c0,1-0.8,1.9-1.9,1.9h-4.9c-1,0-1.9-0.8-1.9-1.9v-4.9c0-1,0.8-1.9,1.9-1.9h4.9
			c1,0,1.9,0.8,1.9,1.9V63.2z"/>
		<path class="st3" d="M81.5,48.1c0,1-0.8,1.9-1.9,1.9h-4.9c-1,0-1.9-0.8-1.9-1.9v-4.9c0-1,0.8-1.9,1.9-1.9h4.9c1,0,1.9,0.8,1.9,1.9
			V48.1z"/>
		<path class="st3" d="M93.8,48.1c0,1-0.8,1.9-1.9,1.9H87c-1,0-1.9-0.8-1.9-1.9v-4.9c0-1,0.8-1.9,1.9-1.9h4.9c1,0,1.9,0.8,1.9,1.9
			V48.1z"/>
		<path class="st3" d="M105.2,48.1c0,1-0.8,1.9-1.9,1.9h-4.9c-1,0-1.9-0.8-1.9-1.9v-4.9c0-1,0.8-1.9,1.9-1.9h4.9
			c1,0,1.9,0.8,1.9,1.9V48.1z"/>
		<path class="st3" d="M117.5,48.1c0,1-0.8,1.9-1.9,1.9h-4.9c-1,0-1.9-0.8-1.9-1.9v-4.9c0-1,0.8-1.9,1.9-1.9h4.9
			c1,0,1.9,0.8,1.9,1.9V48.1z"/>
	</g>
	<path class="st4" d="M72,144.8h46.1c4.5,0,8.2-3.6,8.2-8.1V40.1l-62.4,62.4v34.1C63.8,141.1,67.5,144.8,72,144.8z"/>
	<g class="st5">
		<path class="st6" d="M74.1,20.9c-4.4,0-8,3.6-8,8v12.9L87,20.9H74.1z"/>
	</g>
	<circle class="st7" cx="94" cy="140.1" r="3.1"/>
	<path class="st8" d="M91.9,142.2c-1.2-1.2-1.2-3.1,0-4.3c1.2-1.2,3.1-1.2,4.3,0L91.9,142.2z"/>
	<circle class="st3" cx="82.9" cy="124.5" r="3.5"/>
	<circle class="st3" cx="95.2" cy="124.5" r="3.5"/>
	<circle class="st3" cx="107.5" cy="124.5" r="3.5"/>
</g>
</svg>
